<svg width="32" height="32" viewBox="0 0 32 32" fill="none" xmlns="http://www.w3.org/2000/svg">
<path d="M15.4363 24.5934L7.03891 14.261L20.0896 6.72624L24.8389 19.1648L15.4363 24.5934Z" fill="black" stroke="black"/>
<path d="M6.38469 16.8333C6.57782 17.1795 6.82137 17.6542 7.03207 18.1803C7.24591 18.7142 7.41848 19.2829 7.47788 19.8137C7.53766 20.3479 7.47779 20.7962 7.28217 21.1342C7.21506 21.2501 7.15258 21.3627 7.09445 21.4676L7.08726 21.4806C7.03116 21.5818 6.97967 21.6747 6.92872 21.7629C6.82154 21.9484 6.72907 22.0909 6.63432 22.2018C6.47004 22.3941 6.29758 22.5 5.97154 22.5C5.64188 22.5 5.46549 22.3936 5.30101 22.2034C5.14151 22.0189 5.01385 21.783 4.83769 21.4575C4.78524 21.3606 4.7285 21.2558 4.66533 21.142C4.47082 20.7915 4.45078 20.3487 4.58988 19.82C4.72897 19.2914 5.01427 18.7311 5.35044 18.2058C5.68416 17.6844 6.05373 17.2194 6.34176 16.8832C6.3563 16.8662 6.37061 16.8496 6.38469 16.8333Z" fill="black" stroke="black"/>
</svg>
